<svg xmlns="http://www.w3.org/2000/svg" xmlns:xlink="http://www.w3.org/1999/xlink" width="500" zoomAndPan="magnify" viewBox="0 0 375 374.999991" height="500" preserveAspectRatio="xMidYMid meet" version="1.0"><defs><g/><clipPath id="09c124c2a0"><path d="M 85.488281 51.824219 L 289.511719 51.824219 L 289.511719 255.84375 L 85.488281 255.84375 Z M 85.488281 51.824219 " clip-rule="nonzero"/></clipPath><clipPath id="b274d27d72"><path d="M 187.5 51.824219 C 131.160156 51.824219 85.488281 97.496094 85.488281 153.832031 C 85.488281 210.171875 131.160156 255.84375 187.5 255.84375 C 243.839844 255.84375 289.511719 210.171875 289.511719 153.832031 C 289.511719 97.496094 243.839844 51.824219 187.5 51.824219 Z M 187.5 51.824219 " clip-rule="nonzero"/></clipPath><clipPath id="ccbebc15b2"><path d="M 187.746094 114.515625 L 247.070312 114.515625 L 247.070312 131.515625 L 187.746094 131.515625 Z M 187.746094 114.515625 " clip-rule="nonzero"/></clipPath><clipPath id="8c14e86b14"><path d="M 204 137 L 231 137 L 231 148.675781 L 204 148.675781 Z M 204 137 " clip-rule="nonzero"/></clipPath><clipPath id="333ea303c4"><path d="M 137.425781 158.390625 L 238.105469 158.390625 L 238.105469 200.640625 L 137.425781 200.640625 Z M 137.425781 158.390625 " clip-rule="nonzero"/></clipPath><clipPath id="d71a7b33d1"><path d="M 232.253906 179.875 L 247.25 179.875 L 247.25 201.449219 L 232.253906 201.449219 Z M 232.253906 179.875 " clip-rule="nonzero"/></clipPath><clipPath id="c4ef23a5e8"><path d="M 219.355469 191.191406 L 247.222656 191.191406 L 247.222656 201.722656 L 219.355469 201.722656 Z M 219.355469 191.191406 " clip-rule="nonzero"/></clipPath><clipPath id="f74a2ee89a"><path d="M 127.949219 179.875 L 143.101562 179.875 L 143.101562 201.449219 L 127.949219 201.449219 Z M 127.949219 179.875 " clip-rule="nonzero"/></clipPath><clipPath id="427f30b2c1"><path d="M 127.820312 191.855469 L 155.6875 191.855469 L 155.6875 202.386719 L 127.820312 202.386719 Z M 127.820312 191.855469 " clip-rule="nonzero"/></clipPath><clipPath id="4c8f1b29c8"><path d="M 210.554688 160.140625 L 224.160156 160.140625 L 224.160156 185.277344 L 210.554688 185.277344 Z M 210.554688 160.140625 " clip-rule="nonzero"/></clipPath><clipPath id="c20a0841fa"><path d="M 127.613281 105.117188 L 180.652344 105.117188 L 180.652344 158.152344 L 127.613281 158.152344 Z M 127.613281 105.117188 " clip-rule="nonzero"/></clipPath></defs><rect x="-37.5" width="450" fill="#ffffff" y="-37.499999" height="449.999989" fill-opacity="1"/><rect x="-37.5" width="450" fill="#0d3858" y="-37.499999" height="449.999989" fill-opacity="1"/><g clip-path="url(#09c124c2a0)"><g clip-path="url(#b274d27d72)"><path fill="#93dfa9" d="M 85.488281 51.824219 L 289.511719 51.824219 L 289.511719 255.84375 L 85.488281 255.84375 Z M 85.488281 51.824219 " fill-opacity="1" fill-rule="nonzero"/></g></g><g clip-path="url(#ccbebc15b2)"><path fill="#0d3858" d="M 244.445312 131.503906 C 243.699219 131.503906 242.949219 131.21875 242.378906 130.648438 C 239.164062 127.433594 235.414062 124.90625 231.230469 123.136719 C 226.882812 121.296875 222.28125 120.367188 217.558594 120.367188 C 212.835938 120.367188 208.234375 121.296875 203.886719 123.136719 C 199.703125 124.90625 195.953125 127.433594 192.738281 130.648438 C 191.597656 131.789062 189.746094 131.789062 188.601562 130.648438 C 187.460938 129.503906 187.460938 127.652344 188.601562 126.511719 C 192.351562 122.761719 196.726562 119.8125 201.605469 117.75 C 206.679688 115.605469 212.046875 114.515625 217.558594 114.515625 C 223.070312 114.515625 228.4375 115.605469 233.511719 117.75 C 238.390625 119.8125 242.765625 122.761719 246.515625 126.511719 C 247.65625 127.652344 247.65625 129.503906 246.515625 130.648438 C 245.945312 131.21875 245.195312 131.503906 244.445312 131.503906 " fill-opacity="1" fill-rule="nonzero"/></g><path fill="#0d3858" d="M 236.171875 139.777344 C 235.425781 139.777344 234.675781 139.492188 234.105469 138.921875 C 231.964844 136.777344 229.460938 135.09375 226.671875 133.914062 C 223.777344 132.6875 220.707031 132.066406 217.558594 132.066406 C 214.410156 132.066406 211.34375 132.6875 208.445312 133.914062 C 205.65625 135.09375 203.15625 136.777344 201.011719 138.921875 C 199.871094 140.0625 198.015625 140.0625 196.875 138.921875 C 195.734375 137.777344 195.734375 135.925781 196.875 134.785156 C 199.554688 132.105469 202.679688 130 206.164062 128.527344 C 209.789062 126.992188 213.621094 126.214844 217.558594 126.214844 C 221.496094 126.214844 225.328125 126.992188 228.953125 128.523438 C 232.4375 130 235.5625 132.105469 238.242188 134.785156 C 239.382812 135.925781 239.382812 137.777344 238.242188 138.921875 C 237.671875 139.492188 236.921875 139.777344 236.171875 139.777344 " fill-opacity="1" fill-rule="nonzero"/><g clip-path="url(#8c14e86b14)"><path fill="#0d3858" d="M 227.898438 148.050781 C 227.152344 148.050781 226.402344 147.765625 225.832031 147.195312 C 224.761719 146.121094 223.511719 145.28125 222.117188 144.691406 C 220.667969 144.078125 219.132812 143.765625 217.558594 143.765625 C 215.984375 143.765625 214.449219 144.078125 213 144.691406 C 211.605469 145.28125 210.355469 146.121094 209.285156 147.195312 C 208.144531 148.335938 206.289062 148.335938 205.148438 147.195312 C 204.007812 146.050781 204.007812 144.199219 205.148438 143.054688 C 206.753906 141.449219 208.632812 140.1875 210.722656 139.300781 C 212.894531 138.382812 215.195312 137.917969 217.558594 137.917969 C 219.921875 137.917969 222.222656 138.382812 224.394531 139.300781 C 226.484375 140.1875 228.363281 141.449219 229.96875 143.054688 C 231.109375 144.199219 231.109375 146.050781 229.96875 147.195312 C 229.398438 147.765625 228.648438 148.050781 227.898438 148.050781 " fill-opacity="1" fill-rule="nonzero"/></g><g clip-path="url(#333ea303c4)"><path fill="#0d3858" d="M 106.132812 210.1875 C 110.570312 217.046875 119.730469 219.011719 126.59375 214.574219 C 147.566406 201.003906 187.734375 175.019531 187.734375 175.019531 C 187.734375 175.019531 227.90625 201.003906 248.878906 214.574219 C 255.738281 219.011719 264.898438 217.046875 269.335938 210.1875 C 269.335938 210.1875 191.753906 159.996094 191.753906 159.996094 C 189.308594 158.414062 186.160156 158.414062 183.71875 159.996094 C 183.71875 159.996094 106.132812 210.1875 106.132812 210.1875 Z M 106.132812 210.1875 " fill-opacity="1" fill-rule="evenodd"/></g><g clip-path="url(#d71a7b33d1)"><path fill="#0d3858" d="M 240.992188 180.863281 C 236.476562 180.863281 235.695312 183.355469 235.695312 183.355469 C 235.695312 183.355469 242.703125 182.734375 242.703125 186.316406 C 242.703125 189.351562 239.355469 189.976562 238.421875 189.976562 C 233.59375 189.976562 227.289062 179.929688 215.921875 179.929688 C 210.652344 179.929688 206.792969 181.804688 204.164062 183.8125 C 201.535156 181.804688 197.675781 179.929688 192.40625 179.929688 C 181.039062 179.929688 174.734375 189.976562 169.90625 189.976562 C 168.972656 189.976562 165.625 189.351562 165.625 186.316406 C 165.625 182.734375 172.632812 183.355469 172.632812 183.355469 C 172.632812 183.355469 171.851562 180.863281 167.335938 180.863281 C 162.820312 180.863281 160.953125 186.160156 160.953125 189.429688 C 160.953125 192.699219 163.445312 201.421875 180.261719 201.421875 C 192.578125 201.421875 199.464844 196.910156 204.164062 192.78125 C 208.863281 196.910156 215.75 201.421875 228.066406 201.421875 C 244.886719 201.421875 247.375 192.699219 247.375 189.429688 C 247.375 186.160156 245.507812 180.863281 240.992188 180.863281 Z M 240.992188 180.863281 " fill-opacity="1" fill-rule="nonzero"/></g><g clip-path="url(#c4ef23a5e8)"><path fill="#0d3858" d="M 247.375 187.867188 C 247.375 188.785156 247.285156 189.699219 247.105469 190.601562 C 246.925781 191.503906 246.660156 192.378906 246.308594 193.230469 C 245.957031 194.078125 245.527344 194.886719 245.015625 195.652344 C 244.503906 196.414062 243.921875 197.125 243.273438 197.773438 C 242.621094 198.425781 241.914062 199.003906 241.148438 199.515625 C 240.382812 200.027344 239.578125 200.460938 238.726562 200.8125 C 237.875 201.164062 237 201.429688 236.097656 201.609375 C 235.195312 201.789062 234.285156 201.878906 233.363281 201.878906 C 232.445312 201.878906 231.535156 201.789062 230.632812 201.609375 C 229.730469 201.429688 228.851562 201.164062 228.003906 200.8125 C 227.152344 200.460938 226.347656 200.027344 225.582031 199.515625 C 224.816406 199.003906 224.109375 198.425781 223.457031 197.773438 C 222.808594 197.125 222.226562 196.414062 221.714844 195.652344 C 221.203125 194.886719 220.773438 194.078125 220.421875 193.230469 C 220.070312 192.378906 219.804688 191.503906 219.625 190.601562 C 219.445312 189.699219 219.355469 188.785156 219.355469 187.867188 C 219.355469 186.945312 219.445312 186.035156 219.625 185.132812 C 219.804688 184.230469 220.070312 183.355469 220.421875 182.503906 C 220.773438 181.65625 221.203125 180.847656 221.714844 180.082031 C 222.226562 179.316406 222.808594 178.609375 223.457031 177.960938 C 224.109375 177.308594 224.816406 176.730469 225.582031 176.21875 C 226.347656 175.707031 227.152344 175.273438 228.003906 174.921875 C 228.851562 174.570312 229.730469 174.304688 230.632812 174.125 C 231.535156 173.945312 232.445312 173.855469 233.363281 173.855469 C 234.285156 173.855469 235.195312 173.945312 236.097656 174.125 C 237 174.304688 237.875 174.570312 238.726562 174.921875 C 239.578125 175.273438 240.382812 175.707031 241.148438 176.21875 C 241.914062 176.730469 242.621094 177.308594 243.273438 177.960938 C 243.921875 178.609375 244.503906 179.316406 245.015625 180.082031 C 245.527344 180.847656 245.957031 181.65625 246.308594 182.503906 C 246.660156 183.355469 246.925781 184.230469 247.105469 185.132812 C 247.285156 186.035156 247.375 186.945312 247.375 187.867188 Z M 247.375 187.867188 " fill-opacity="1" fill-rule="nonzero"/></g><g clip-path="url(#f74a2ee89a)"><path fill="#0d3858" d="M 134.207031 180.863281 C 138.722656 180.863281 139.503906 183.355469 139.503906 183.355469 C 139.503906 183.355469 132.496094 182.734375 132.496094 186.316406 C 132.496094 189.351562 135.84375 189.976562 136.777344 189.976562 C 141.605469 189.976562 147.910156 179.929688 159.277344 179.929688 C 164.546875 179.929688 168.40625 181.804688 171.035156 183.8125 C 173.664062 181.804688 177.523438 179.929688 182.792969 179.929688 C 194.160156 179.929688 200.464844 189.976562 205.292969 189.976562 C 206.226562 189.976562 209.574219 189.351562 209.574219 186.316406 C 209.574219 182.734375 202.566406 183.355469 202.566406 183.355469 C 202.566406 183.355469 203.347656 180.863281 207.863281 180.863281 C 212.378906 180.863281 214.246094 186.160156 214.246094 189.429688 C 214.246094 192.699219 211.753906 201.421875 194.9375 201.421875 C 182.621094 201.421875 175.734375 196.910156 171.035156 192.78125 C 166.335938 196.910156 159.449219 201.421875 147.132812 201.421875 C 130.316406 201.421875 127.824219 192.699219 127.824219 189.429688 C 127.824219 186.160156 129.691406 180.863281 134.207031 180.863281 Z M 134.207031 180.863281 " fill-opacity="1" fill-rule="nonzero"/></g><g clip-path="url(#427f30b2c1)"><path fill="#0d3858" d="M 155.839844 188.53125 C 155.839844 189.453125 155.75 190.363281 155.570312 191.265625 C 155.394531 192.167969 155.125 193.042969 154.773438 193.894531 C 154.421875 194.742188 153.992188 195.550781 153.480469 196.316406 C 152.96875 197.082031 152.386719 197.789062 151.738281 198.4375 C 151.085938 199.089844 150.378906 199.671875 149.613281 200.179688 C 148.851562 200.691406 148.042969 201.125 147.191406 201.476562 C 146.34375 201.828125 145.464844 202.09375 144.5625 202.273438 C 143.660156 202.453125 142.75 202.542969 141.832031 202.542969 C 140.910156 202.542969 140 202.453125 139.097656 202.273438 C 138.195312 202.09375 137.320312 201.828125 136.46875 201.476562 C 135.617188 201.125 134.8125 200.691406 134.046875 200.179688 C 133.28125 199.671875 132.574219 199.089844 131.921875 198.4375 C 131.273438 197.789062 130.691406 197.082031 130.179688 196.316406 C 129.671875 195.550781 129.238281 194.742188 128.886719 193.894531 C 128.535156 193.042969 128.269531 192.167969 128.089844 191.265625 C 127.910156 190.363281 127.820312 189.453125 127.820312 188.53125 C 127.820312 187.613281 127.910156 186.699219 128.089844 185.796875 C 128.269531 184.894531 128.535156 184.019531 128.886719 183.171875 C 129.238281 182.320312 129.671875 181.511719 130.179688 180.75 C 130.691406 179.984375 131.273438 179.277344 131.921875 178.625 C 132.574219 177.972656 133.28125 177.394531 134.046875 176.882812 C 134.8125 176.371094 135.617188 175.941406 136.46875 175.585938 C 137.320312 175.234375 138.195312 174.96875 139.097656 174.789062 C 140 174.609375 140.910156 174.519531 141.832031 174.519531 C 142.75 174.519531 143.660156 174.609375 144.5625 174.789062 C 145.464844 174.96875 146.34375 175.234375 147.191406 175.585938 C 148.042969 175.941406 148.851562 176.371094 149.613281 176.882812 C 150.378906 177.394531 151.085938 177.972656 151.738281 178.625 C 152.386719 179.277344 152.96875 179.984375 153.480469 180.75 C 153.992188 181.511719 154.421875 182.320312 154.773438 183.171875 C 155.125 184.019531 155.394531 184.894531 155.570312 185.796875 C 155.75 186.699219 155.839844 187.613281 155.839844 188.53125 Z M 155.839844 188.53125 " fill-opacity="1" fill-rule="nonzero"/></g><g clip-path="url(#4c8f1b29c8)"><path fill="#0d3858" d="M 210.554688 160.140625 L 224.160156 160.140625 L 224.160156 185.285156 L 210.554688 185.285156 Z M 210.554688 160.140625 " fill-opacity="1" fill-rule="nonzero"/></g><g clip-path="url(#c20a0841fa)"><path fill="#0d3858" d="M 154.351562 105.117188 C 139.578125 105.117188 127.613281 117.078125 127.613281 131.851562 C 127.613281 146.625 139.578125 158.589844 154.351562 158.589844 C 169.121094 158.589844 181.085938 146.625 181.085938 131.851562 C 181.085938 117.078125 169.121094 105.117188 154.351562 105.117188 Z M 154.351562 153.242188 C 142.535156 153.242188 132.960938 143.667969 132.960938 131.851562 C 132.960938 120.035156 142.535156 110.460938 154.351562 110.460938 C 166.167969 110.460938 175.738281 120.035156 175.738281 131.851562 C 175.738281 143.667969 166.167969 153.242188 154.351562 153.242188 Z M 154.351562 153.242188 " fill-opacity="1" fill-rule="nonzero"/></g><g fill="#eef8ff" fill-opacity="1"><g transform="translate(37.980847, 314.108271)"><g><path d="M 7.640625 0 C 6.628906 0 5.707031 -0.25 4.875 -0.75 C 4.039062 -1.257812 3.367188 -1.929688 2.859375 -2.765625 C 2.359375 -3.597656 2.109375 -4.519531 2.109375 -5.53125 L 2.109375 -7.71875 L 7.359375 -7.71875 L 7.359375 -5.765625 C 7.359375 -5.628906 7.40625 -5.515625 7.5 -5.421875 C 7.59375 -5.335938 7.707031 -5.296875 7.84375 -5.296875 L 24.984375 -5.296875 C 25.117188 -5.296875 25.226562 -5.335938 25.3125 -5.421875 C 25.40625 -5.515625 25.453125 -5.628906 25.453125 -5.765625 L 25.453125 -11.21875 C 25.453125 -11.351562 25.40625 -11.457031 25.3125 -11.53125 C 25.226562 -11.613281 25.117188 -11.65625 24.984375 -11.65625 L 7.640625 -11.65625 C 6.628906 -11.65625 5.707031 -11.90625 4.875 -12.40625 C 4.039062 -12.914062 3.367188 -13.585938 2.859375 -14.421875 C 2.359375 -15.253906 2.109375 -16.1875 2.109375 -17.21875 L 2.109375 -23.109375 C 2.109375 -24.117188 2.359375 -25.039062 2.859375 -25.875 C 3.367188 -26.707031 4.039062 -27.375 4.875 -27.875 C 5.707031 -28.382812 6.628906 -28.640625 7.640625 -28.640625 L 25.21875 -28.640625 C 26.226562 -28.640625 27.148438 -28.382812 27.984375 -27.875 C 28.816406 -27.375 29.484375 -26.707031 29.984375 -25.875 C 30.492188 -25.039062 30.75 -24.117188 30.75 -23.109375 L 30.75 -20.921875 L 25.453125 -20.921875 L 25.453125 -22.875 C 25.453125 -23.007812 25.40625 -23.125 25.3125 -23.21875 C 25.226562 -23.3125 25.117188 -23.359375 24.984375 -23.359375 L 7.84375 -23.359375 C 7.707031 -23.359375 7.59375 -23.3125 7.5 -23.21875 C 7.40625 -23.125 7.359375 -23.007812 7.359375 -22.875 L 7.359375 -17.421875 C 7.359375 -17.285156 7.40625 -17.175781 7.5 -17.09375 C 7.59375 -17.019531 7.707031 -16.984375 7.84375 -16.984375 L 25.21875 -16.984375 C 26.226562 -16.984375 27.148438 -16.726562 27.984375 -16.21875 C 28.816406 -15.71875 29.484375 -15.050781 29.984375 -14.21875 C 30.492188 -13.382812 30.75 -12.453125 30.75 -11.421875 L 30.75 -5.53125 C 30.75 -4.519531 30.492188 -3.597656 29.984375 -2.765625 C 29.484375 -1.929688 28.816406 -1.257812 27.984375 -0.75 C 27.148438 -0.25 26.226562 0 25.21875 0 Z M 7.640625 0 "/></g></g></g><g fill="#eef8ff" fill-opacity="1"><g transform="translate(70.838234, 314.108271)"><g><path d="M 2.234375 0 L 2.234375 -28.640625 L 8 -28.640625 L 18.375 -16.265625 L 28.71875 -28.640625 L 34.53125 -28.640625 L 34.53125 0 L 29.234375 0 L 29.234375 -21 L 18.375 -8.078125 L 7.484375 -20.96875 L 7.484375 0 Z M 2.234375 0 "/></g></g></g><g fill="#eef8ff" fill-opacity="1"><g transform="translate(107.753077, 314.108271)"><g><path d="M 2.3125 0 L 2.3125 -23.109375 C 2.3125 -24.117188 2.5625 -25.039062 3.0625 -25.875 C 3.5625 -26.707031 4.226562 -27.375 5.0625 -27.875 C 5.90625 -28.382812 6.832031 -28.640625 7.84375 -28.640625 L 25.375 -28.640625 C 26.382812 -28.640625 27.3125 -28.382812 28.15625 -27.875 C 29.007812 -27.375 29.6875 -26.707031 30.1875 -25.875 C 30.695312 -25.039062 30.953125 -24.117188 30.953125 -23.109375 L 30.953125 0 L 25.65625 0 L 25.65625 -9.625 L 7.5625 -9.625 L 7.5625 0 Z M 7.5625 -14.875 L 25.65625 -14.875 L 25.65625 -22.875 C 25.65625 -23.007812 25.601562 -23.125 25.5 -23.21875 C 25.394531 -23.3125 25.273438 -23.359375 25.140625 -23.359375 L 8.03125 -23.359375 C 7.90625 -23.359375 7.796875 -23.3125 7.703125 -23.21875 C 7.609375 -23.125 7.5625 -23.007812 7.5625 -22.875 Z M 7.5625 -14.875 "/></g></g></g><g fill="#eef8ff" fill-opacity="1"><g transform="translate(141.008251, 314.108271)"><g><path d="M 25.0625 0 L 16.4375 -10.296875 L 23.3125 -10.296875 L 30.796875 -1.46875 L 30.796875 0 Z M 2.234375 0 L 2.234375 -28.609375 L 25.296875 -28.609375 C 26.304688 -28.609375 27.234375 -28.351562 28.078125 -27.84375 C 28.929688 -27.34375 29.609375 -26.671875 30.109375 -25.828125 C 30.617188 -24.992188 30.875 -24.078125 30.875 -23.078125 L 30.875 -15.359375 C 30.875 -14.347656 30.617188 -13.414062 30.109375 -12.5625 C 29.609375 -11.71875 28.929688 -11.050781 28.078125 -10.5625 C 27.234375 -10.070312 26.304688 -9.828125 25.296875 -9.828125 L 7.484375 -9.78125 L 7.484375 0 Z M 7.953125 -15.109375 L 25.0625 -15.109375 C 25.195312 -15.109375 25.316406 -15.148438 25.421875 -15.234375 C 25.523438 -15.316406 25.578125 -15.421875 25.578125 -15.546875 L 25.578125 -22.875 C 25.578125 -23.007812 25.523438 -23.125 25.421875 -23.21875 C 25.316406 -23.3125 25.195312 -23.359375 25.0625 -23.359375 L 7.953125 -23.359375 C 7.816406 -23.359375 7.703125 -23.3125 7.609375 -23.21875 C 7.523438 -23.125 7.484375 -23.007812 7.484375 -22.875 L 7.484375 -15.546875 C 7.484375 -15.421875 7.523438 -15.316406 7.609375 -15.234375 C 7.703125 -15.148438 7.816406 -15.109375 7.953125 -15.109375 Z M 7.953125 -15.109375 "/></g></g></g><g fill="#eef8ff" fill-opacity="1"><g transform="translate(173.825853, 314.108271)"><g><path d="M 12.484375 0 L 12.484375 -23.359375 L 0.796875 -23.359375 L 0.796875 -28.640625 L 29.4375 -28.640625 L 29.4375 -23.359375 L 17.78125 -23.359375 L 17.78125 0 Z M 12.484375 0 "/></g></g></g><g fill="#eef8ff" fill-opacity="1"><g transform="translate(204.018047, 314.108271)"><g><path d="M 7.671875 0 C 6.671875 0 5.75 -0.25 4.90625 -0.75 C 4.070312 -1.257812 3.398438 -1.929688 2.890625 -2.765625 C 2.390625 -3.597656 2.140625 -4.519531 2.140625 -5.53125 L 2.140625 -23.109375 C 2.140625 -24.117188 2.390625 -25.039062 2.890625 -25.875 C 3.398438 -26.707031 4.070312 -27.375 4.90625 -27.875 C 5.75 -28.382812 6.671875 -28.640625 7.671875 -28.640625 L 25.265625 -28.640625 C 26.265625 -28.640625 27.179688 -28.382812 28.015625 -27.875 C 28.859375 -27.375 29.53125 -26.707031 30.03125 -25.875 C 30.539062 -25.039062 30.796875 -24.117188 30.796875 -23.109375 L 30.796875 -5.53125 C 30.796875 -4.519531 30.539062 -3.597656 30.03125 -2.765625 C 29.53125 -1.929688 28.859375 -1.257812 28.015625 -0.75 C 27.179688 -0.25 26.265625 0 25.265625 0 Z M 7.875 -5.296875 L 24.984375 -5.296875 C 25.117188 -5.296875 25.238281 -5.335938 25.34375 -5.421875 C 25.445312 -5.515625 25.5 -5.628906 25.5 -5.765625 L 25.5 -22.875 C 25.5 -23.007812 25.445312 -23.125 25.34375 -23.21875 C 25.238281 -23.3125 25.117188 -23.359375 24.984375 -23.359375 L 7.875 -23.359375 C 7.738281 -23.359375 7.625 -23.3125 7.53125 -23.21875 C 7.445312 -23.125 7.40625 -23.007812 7.40625 -22.875 L 7.40625 -5.765625 C 7.40625 -5.628906 7.445312 -5.515625 7.53125 -5.421875 C 7.625 -5.335938 7.738281 -5.296875 7.875 -5.296875 Z M 7.875 -5.296875 "/></g></g></g><g fill="#eef8ff" fill-opacity="1"><g transform="translate(236.954992, 314.108271)"><g><path d="M 12.484375 0 L 12.484375 -23.359375 L 0.796875 -23.359375 L 0.796875 -28.640625 L 29.4375 -28.640625 L 29.4375 -23.359375 L 17.78125 -23.359375 L 17.78125 0 Z M 12.484375 0 "/></g></g></g><g fill="#eef8ff" fill-opacity="1"><g transform="translate(267.147185, 314.108271)"><g><path d="M 7.671875 0 C 6.671875 0 5.75 -0.25 4.90625 -0.75 C 4.070312 -1.257812 3.398438 -1.929688 2.890625 -2.765625 C 2.390625 -3.597656 2.140625 -4.519531 2.140625 -5.53125 L 2.140625 -28.640625 L 7.40625 -28.640625 L 7.40625 -5.765625 C 7.40625 -5.628906 7.445312 -5.515625 7.53125 -5.421875 C 7.625 -5.335938 7.738281 -5.296875 7.875 -5.296875 L 24.984375 -5.296875 C 25.117188 -5.296875 25.238281 -5.335938 25.34375 -5.421875 C 25.445312 -5.515625 25.5 -5.628906 25.5 -5.765625 L 25.5 -28.640625 L 30.796875 -28.640625 L 30.796875 -5.53125 C 30.796875 -4.519531 30.539062 -3.597656 30.03125 -2.765625 C 29.53125 -1.929688 28.859375 -1.257812 28.015625 -0.75 C 27.179688 -0.25 26.265625 0 25.265625 0 Z M 7.671875 0 "/></g></g></g><g fill="#eef8ff" fill-opacity="1"><g transform="translate(300.08413, 314.108271)"><g><path d="M 2.234375 0 L 2.234375 -28.640625 L 8 -28.640625 L 18.375 -16.265625 L 28.71875 -28.640625 L 34.53125 -28.640625 L 34.53125 0 L 29.234375 0 L 29.234375 -21 L 18.375 -8.078125 L 7.484375 -20.96875 L 7.484375 0 Z M 2.234375 0 "/></g></g></g></svg>